<svg version="1.1" width="1000" height="1000" 
  xmlns="http://www.w3.org/2000/svg" 
  xmlns:xlink="http://www.w3.org/1999/xlink">

  <rect x="0" y="0" width="100%" height="100%" fill="black" />

  <g>

    <use transform="translate(110, 250)" xlink:href="#letter-r"/>
    <use transform="translate(200, 300)" xlink:href="#letter-o"/>
    <use transform="translate(300, 300)" xlink:href="#letter-b"/>
    <use transform="translate(400, 300)" xlink:href="#letter-o"/>
    <use transform="translate(500, 300)" xlink:href="#letter-c"/>
    <use transform="translate(600, 300)" xlink:href="#letter-o"/>
    <use transform="translate(700, 300)" xlink:href="#letter-d"/>
    <use transform="translate(790, 250)" xlink:href="#letter-e"/>

    <!-- Over Wheels -->
    <polygon fill="#030" stroke-width="10" stroke="#060" points="195,215 170,240 270,290 730,290 830,240 805,215"/>
    <!-- Turret -->
    <polygon fill="#030" stroke-width="10" stroke="#060" points="325,205 325,160 425,100 600,100 600,205"/>

    <!-- Cannon -->
    <polygon fill="#333" stroke-width="10" stroke="#666" points="610,190 610,130 700,130 700,190"/>
    <polygon fill="#333" stroke-width="10" stroke="#666" points="710,175 710,145 950,145 950,175"/>
  </g>

  <defs>
    <symbol id="letter-r">
      <circle cx="50" cy="50" r="45" stroke="#666" stroke-width="10" fill="#222" mask="url(#r_hole)"/>
      <polygon stroke="#666" stroke-width="10" points="60,50 88,25 88,65" mask="url(#r_hole)"/>
    </symbol>

    <mask id="r_hole">
      <rect width="100%" height="100%" fill="white"/>
      <polygon points="66,50 110,15 110,70"/>
      <polygon points="25,110 50,50, 75,110"/>
    </mask>

    <symbol id="letter-o">
      <circle cx="50" cy="50" r="45" stroke="#666" stroke-width="10" fill="#222"/>
      <circle cx="50" cy="50" r="5" stroke="#666" stroke-width="10"/>
    </symbol>

    <symbol id="letter-b">
      <circle cx="50" cy="50" r="45" stroke="#666" stroke-width="10" fill="#222" mask="url(#b_hole)"/>
      <polygon stroke="#666" stroke-width="10" points="60,50 88,25 88,75" mask="url(#b_hole)"/>
      <rect x="20" y="0" width="10" height="100"/>
      <rect x="30" y="10" width="10" height="80" fill="#666"/>
    </symbol>

    <mask id="b_hole">
      <rect width="100%" height="100%" fill="white"/>
      <polygon points="70,50 110,10 110,90"/>
    </mask>

    <symbol id="letter-c">
      <circle cx="50" cy="50" r="45" stroke="#666" stroke-width="10" fill="#222" mask="url(#c_hole)"/>
      <circle cx="50" cy="50" r="5" stroke="#666" stroke-width="10"/>
    </symbol>

    <mask id="c_hole">
      <rect width="100%" height="100%" fill="white"/>
      <polygon points="50,50 110,25 110,75"/>
    </mask>

    <symbol id="letter-d">
      <circle cx="50" cy="50" r="45" stroke="#666" stroke-width="10" fill="#222"/>
      <rect x="20" y="0" width="10" height="100"/>
      <rect x="30" y="10" width="10" height="80" fill="#666"/>
      <circle cx="50" cy="50" r="5" stroke="#666" stroke-width="10"/>
    </symbol>

    <symbol id="letter-e">
      <circle cx="50" cy="50" r="45" stroke="#666" stroke-width="10" fill="#222" mask="url(#c_hole)"/>
      <line x1="5" y1="50" x2="50" y2="50" stroke="#666" stroke-width="10"/>
      <circle cx="50" cy="50" r="5" stroke="#666" stroke-width="10"/>
    </symbol>
  </defs>
</svg>