<svg version="1.1" width="1000" height="1000" 
  xmlns="http://www.w3.org/2000/svg" 
  xmlns:xlink="http://www.w3.org/1999/xlink">

  <rect x="0" y="0" width="100%" height="100%" fill="black" />

  <g>

    <use transform="translate(110, 250)" xlink:href="#letter-r"/>
    <use transform="translate(200, 300)" xlink:href="#letter-o"/>
    <use transform="translate(300, 300)" xlink:href="#letter-b"/>
    <use transform="translate(400, 300)" xlink:href="#letter-o"/>
    <use transform="translate(500, 300)" xlink:href="#letter-c"/>
    <use transform="translate(600, 300)" xlink:href="#letter-o"/>
    <use transform="translate(700, 300)" xlink:href="#letter-d"/>
    <use transform="translate(790, 250)" xlink:href="#letter-e"/>

    <!-- Over Wheels -->
    <polygon fill="grey" points="175,225 150,250 250,300 750,300 850,250 825,225"/>
    <!-- Turret -->
    <polygon fill="grey" points="325,220 325,175 425,125 600,125 600,220"/>

    <!-- Cannon -->
    <polygon fill="grey" points="605,200 605,140, 700,140 700,200"/>
    <polygon fill="grey" points="705,185 705,155 950,155 950,185"/>

    <polygon fill="grey" points="175,225 "/>
  </g>

  <defs>
    <symbol id="letter-r">
      <circle cx="50" cy="50" r="45" stroke="grey" stroke-width="10" mask="url(#r_hole)"/>
      <polygon stroke="grey" stroke-width="10" points="60,50 88,25 88,65" mask="url(#r_hole)"/>
    </symbol>

    <mask id="r_hole">
      <rect width="100%" height="100%" fill="white"/>
      <polygon points="66,50 110,15 110,70"/>
      <polygon points="25,110 50,50, 75,110"/>
    </mask>

    <symbol id="letter-o">
      <circle cx="50" cy="50" r="45" stroke="grey" stroke-width="10"/>
    </symbol>

    <symbol id="letter-b">
      <circle cx="50" cy="50" r="45" stroke="grey" stroke-width="10" mask="url(#b_hole)"/>
      <polygon stroke="grey" stroke-width="10" points="60,50 88,25 88,75" mask="url(#b_hole)"/>
    </symbol>

    <mask id="b_hole">
      <rect width="100%" height="100%" fill="white"/>
      <polygon points="70,50 110,10 110,90"/>
    </mask>

    <symbol id="letter-c">
      <circle cx="50" cy="50" r="45" stroke="grey" stroke-width="10" mask="url(#c_hole)"/>
    </symbol>

    <mask id="c_hole">
      <rect width="100%" height="100%" fill="white"/>
      <polygon points="50,50 110,25 110,75"/>
    </mask>

    <symbol id="letter-d">
      <circle cx="50" cy="50" r="45" stroke="grey" stroke-width="10"/>
      <rect x="20" y="0" width="10" height="100"/>
      <rect x="30" y="10" width="10" height="80" fill="grey"/>
    </symbol>

    <symbol id="letter-e">
      <circle cx="50" cy="50" r="45" stroke="grey" stroke-width="10" mask="url(#c_hole)"/>
      <line x1="5" y1="50" x2="50" y2="50" stroke="grey" stroke-width="10"/>
    </symbol>
  </defs>
</svg>