<svg version="1.1" width="1000" height="600" 
  xmlns="http://www.w3.org/2000/svg" 
  xmlns:xlink="http://www.w3.org/1999/xlink">

  <rect x="0" y="0" width="100%" height="100%" fill="black" />

  <g>
    <use xlink:href="#Robocode-logo" transform="translate(90,0)"/>
    <text x="325" y="355" fill="white" style="font: bold 30px sans-serif">Robocode Tank Royale</text>
    <use xlink:href="#RTR-logo" transform="scale(0.6,0.6) translate(320,620)"/>
    <text x="278" y="580" fill="white" style="font: bold 30px sans-serif">Build the best - destroy the rest!</text>
  </g>

  <defs>
    <symbol id="Robocode-logo">
      <!-- Turret -->
      <polygon fill="#006" stroke-width="10" stroke="#00C" points="225,120 225,80 325,20 500,20 500,120"/>
      <!-- Cannon -->
      <polygon fill="#333" stroke-width="10" stroke="#666" points="515,105 515,45 600,45 600,105"/>
      <polygon fill="#333" stroke-width="10" stroke="#666" points="615,90 615,60 850,60 850,90"/>

      <!-- Over Wheels -->
      <polygon fill="#006" stroke-width="10" stroke="#00C" points="95,135 70,160 170,210 630,210 730,160 705,135"/>

      <!-- Wheels / letters -->
      <use transform="translate(10, 170)" xlink:href="#letter-r"/>
      <use transform="translate(100, 220)" xlink:href="#letter-o"/>
      <use transform="translate(200, 220)" xlink:href="#letter-b"/>
      <use transform="translate(300, 220)" xlink:href="#letter-o"/>
      <use transform="translate(400, 220)" xlink:href="#letter-c"/>
      <use transform="translate(500, 220)" xlink:href="#letter-o"/>
      <use transform="translate(600, 220)" xlink:href="#letter-d"/>
      <use transform="translate(690, 170)" xlink:href="#letter-e"/>
    </symbol>

    <symbol id="letter-r">
      <circle cx="50" cy="50" r="45" stroke="#666" stroke-width="10" fill="#222" mask="url(#r_hole)"/>
      <polygon stroke="#666" stroke-width="10" points="60,50 88,25 88,65" mask="url(#r_hole)"/>
    </symbol>

    <mask id="r_hole">
      <rect width="100%" height="100%" fill="white"/>
      <polygon points="66,50 110,15 110,70"/>
      <polygon points="25,110 50,50, 75,110"/>
    </mask>

    <symbol id="letter-o">
      <circle cx="50" cy="50" r="45" stroke="#666" stroke-width="10" fill="#222"/>
      <circle cx="50" cy="50" r="5" stroke="#666" stroke-width="10"/>
    </symbol>

    <symbol id="letter-b">
      <circle cx="50" cy="50" r="45" stroke="#666" stroke-width="10" fill="#222" mask="url(#b_hole)"/>
      <polygon stroke="#666" stroke-width="10" points="60,50 88,25 88,75" mask="url(#b_hole)"/>
      <rect x="20" y="0" width="10" height="100"/>
      <rect x="30" y="10" width="10" height="80" fill="#666"/>
    </symbol>

    <mask id="b_hole">
      <rect width="100%" height="100%" fill="white"/>
      <polygon points="70,50 110,10 110,90"/>
    </mask>

    <symbol id="letter-c">
      <circle cx="50" cy="50" r="45" stroke="#666" stroke-width="10" fill="#222" mask="url(#c_hole)"/>
      <circle cx="50" cy="50" r="5" stroke="#666" stroke-width="10"/>
    </symbol>

    <mask id="c_hole">
      <rect width="100%" height="100%" fill="white"/>
      <polygon points="50,50 110,25 110,75"/>
    </mask>

    <symbol id="letter-d">
      <circle cx="50" cy="50" r="45" stroke="#666" stroke-width="10" fill="#222"/>
      <rect x="20" y="0" width="10" height="100"/>
      <rect x="30" y="10" width="10" height="80" fill="#666"/>
      <circle cx="50" cy="50" r="5" stroke="#666" stroke-width="10"/>
    </symbol>

    <symbol id="letter-e">
      <circle cx="50" cy="50" r="45" stroke="#666" stroke-width="10" fill="#222" mask="url(#c_hole)"/>
      <line x1="5" y1="50" x2="50" y2="50" stroke="#666" stroke-width="10"/>
      <circle cx="50" cy="50" r="5" stroke="#666" stroke-width="10"/>
    </symbol>

    <symbol id="RTR-logo" transform="scale(0.8,0.8)">
      <use xlink:href="#RTR-bg" transform="translate(350,0)" fill="#333" stroke="#333" stroke-width="20"/>
      <use xlink:href="#RTR" transform="translate(350,0)" fill="#333" stroke="#999" stroke-width="20"/>

      <use xlink:href="#wing" transform="translate(350,0)" fill="#333" stroke="#999" stroke-width="20"/>
      <use xlink:href="#wing" transform="translate(650,0) scale(-1,1) " fill="#333" stroke="#999" stroke-width="20"/>
    </symbol>

    <path id="RTR-bg" d="M 60,30 L 80,10 220,10 240,30 290,80 290,210 150,292 10,210 10,80 60,30 80,10"/>

    <symbol id="RTR">
      <path d="M 60,30 L 80,10 220,10 240,30"/>
      <use xlink:href="#R" transform="translate(160,40)"/>
      <use xlink:href="#R" transform="translate(140,40) scale(-1,1)"/>
    </symbol>

    <path id="R" d="
      M 100,10
      L 130,40 130,170 10,240 10,10
      a 80,80 0 0 1 80,80
      L 10,90 50,90 86,166"/>

    <symbol id="wing">
      <path d="M 330,75 L 380,10 620,10 580,50 330,80 Z"/>
      <path d="M 330,195 L 330,120 550,90 470,150 330,195 Z"/>
    </symbol>
  </defs>
</svg>