<svg version="1.1" width="1000" height="1000" 
  xmlns="http://www.w3.org/2000/svg" 
  xmlns:xlink="http://www.w3.org/1999/xlink">

  <rect x="0" y="0" width="100%" height="100%" fill="black" />

  <g>
    <path d="M 60,30 L 80,10 220,10 240,30 290,80 290,210 150,292 10,210 10,80 60,30 80,10" fill="#333" stroke="#333" stroke-width="20"/>
    <use xlink:href="#RTR" transform="translate(0,0)" fill="#333" stroke="#999" stroke-width="20"/>
  </g>

  <defs>
    <symbol id="RTR">
      <path d="M 60,30 L 80,10 220,10 240,30"/>
      <use xlink:href="#R" transform="translate(160,40)"/>
      <use xlink:href="#R" transform="translate(140,40) scale(-1,1)"/>
    </symbol>

    <path id="R" d="
      M 100,10
      L 130,40 130,170 10,240 10,10
      a 80,80 0 0 1 80,80
      L 10,90 50,90 86,166"/>
  </defs>
</svg>