<!--
Tank logo for Robocode Tank Royale
Copyright 2022 Flemming Nørnberg Larsen
-->
<svg version="1.1" width="500" height="500" viewBox="0 0 600 600"
     xmlns="http://www.w3.org/2000/svg" xmlns:xlink="http://www.w3.org/1999/xlink">

  <g>
    <use xlink:href="#tank" />
  </g>

  <defs>
    <symbol id="link0">
      <rect x="5" y="55" width="125" height="25" fill="#aaaaaa" />
      <rect x="10" y="70" width="116" height="35" fill="#666666" rx="10" ry="10" />
      <rect x="5" y="55" width="125" height="50" fill="none" stroke="black" stroke-width="10" rx="10" ry="10" />
    </symbol>

    <symbol id="link30">
      <rect x="5" y="55" width="125" height="25" fill="#939393" />
      <rect x="10" y="70" width="116" height="30" fill="#585858" rx="10" ry="10" />
      <rect x="5" y="55" width="125" height="42" fill="none" stroke="black" stroke-width="10" rx="10" ry="10" />
    </symbol>

    <symbol id="link60">
      <rect x="5" y="55" width="125" height="20" fill="#555555" />
      <rect x="5" y="55" width="125" height="20" fill="none" stroke="black" stroke-width="10" rx="10" ry="10" />
    </symbol>

    <symbol id="main-track">
      <rect x="20" y="75" width="95" height="450" fill="#333333" stroke="black" stroke-width="10" />
    </symbol>

    <symbol id="track1">
      <use xlink:href="#main-track" x="0" y="0" />
      <use xlink:href="#link30" x="0" y="0" />
      <use xlink:href="#link0" x="0" y="60" />
      <use xlink:href="#link0" x="0" y="140" />
      <use xlink:href="#link0" x="0" y="220" />
      <use xlink:href="#link0" x="0" y="300" />
      <use xlink:href="#link0" x="0" y="380" />
      <use xlink:href="#link30" x="0" y="448" />
    </symbol>

    <symbol id="body">
      <use xlink:href="#track1" x="50" y="45" />
      <use xlink:href="#track1" x="415" y="45" />

      <rect x="140" y="135" width="320" height="420" fill="#019" stroke="black" stroke-width="20" rx="10" ry="10" />
      <rect x="150" y="465" width="300" height="80" fill="black" opacity="0.5" />
    </symbol>

    <symbol id="turret">
      <rect x="200" y="265" width="200" height="200" fill="#06C" stroke="black" stroke-width="20" rx="10" ry="10" />
      <rect x="210" y="405" width="180" height="50" fill="black" opacity="0.5" />

      <rect x="260" y="185" width="80" height="80" fill="url(#cannon-grad)" stroke="black" stroke-width="20" />
      <rect x="275" y="15" width="50" height="170" fill="url(#cannon-grad)" stroke="black" stroke-width="20" />

      <linearGradient id="cannon-grad" x1="0%" y1="0%" x2="100%" y2="0%">
        <stop offset="0%" stop-color="#333" />
        <stop offset="50%" stop-color="#CCC" />
        <stop offset="100%" stop-color="#333" />
      </linearGradient>
    </symbol>

    <symbol id="radar">
      <circle cx="300" cy="345" r="30" fill="#AAF" stroke="black" stroke-width="20" />
      <path d="M 190 365 q 110 100 220 0 z" fill="#AAF" stroke="black" stroke-width="20" />
    </symbol>

    <symbol id="tank">
      <use xlink:href="#body"/>
      <use xlink:href="#turret"/>
      <use xlink:href="#radar"/>
    </symbol>
  </defs>
</svg>
